<svg width="1440" height="754" viewBox="0 0 1440 754" fill="none" xmlns="http://www.w3.org/2000/svg">
<path d="M513.65 103.176C261.762 -55.2949 -329.903 267.428 -418.5 426.5L-11.3884 722L1426 887.5C1502.06 681.225 1794.99 14.774 1610.44 129.324C1450.94 228.324 1556.56 -74.3147 1389.72 19C1222.89 112.315 1069.77 177.664 921.741 103.176C773.716 28.6884 828.509 301.266 513.65 103.176Z" fill="url(#paint0_linear_1044_93)" fill-opacity="0.32"/>
<path d="M459.15 125.285C207.262 -33.1865 -384.403 289.537 -473 448.608L-65.8884 744.109L1371.5 909.608C1447.56 703.334 1740.49 36.8824 1555.94 151.432C1396.44 250.432 1502.06 -52.2063 1335.22 41.1084C1168.39 134.423 1015.27 199.773 867.241 125.285C719.216 50.7968 774.009 323.374 459.15 125.285Z" fill="url(#paint1_linear_1044_93)" fill-opacity="0.32"/>
<defs>
<linearGradient id="paint0_linear_1044_93" x1="719.522" y1="56.0001" x2="719.522" y2="887.5" gradientUnits="userSpaceOnUse">
<stop stop-color="#0EE9AA" stop-opacity="0.28"/>
<stop offset="1" stop-color="white"/>
</linearGradient>
<linearGradient id="paint1_linear_1044_93" x1="665.022" y1="78.1085" x2="665.022" y2="909.608" gradientUnits="userSpaceOnUse">
<stop stop-color="#0EE9AA"/>
<stop offset="1" stop-color="white"/>
</linearGradient>
</defs>
</svg>
