<svg width="52" height="52" viewBox="0 0 52 52" fill="none" xmlns="http://www.w3.org/2000/svg">
<circle cx="26" cy="26" r="26" fill="#F4FBF9"/>
<path d="M38 28C39.1046 28 40 27.1046 40 26C40 24.8954 39.1046 24 38 24V28ZM12.5858 24.5858C11.8047 25.3668 11.8047 26.6332 12.5858 27.4142L25.3137 40.1421C26.0948 40.9232 27.3611 40.9232 28.1421 40.1421C28.9232 39.3611 28.9232 38.0948 28.1421 37.3137L16.8284 26L28.1421 14.6863C28.9232 13.9052 28.9232 12.6389 28.1421 11.8579C27.3611 11.0768 26.0948 11.0768 25.3137 11.8579L12.5858 24.5858ZM38 24H14V28H38V24Z" fill="#12FFBB"/>
</svg>
