<svg width="1440" height="674" viewBox="0 0 1440 674" fill="none" xmlns="http://www.w3.org/2000/svg">
<g opacity="0.2">
<path d="M425.376 534.404C410.651 650.417 111.909 895.5 -168.831 759.071C-209.128 739.486 -234.802 704.954 -240.335 662.211C-243.017 641.511 -244.068 615.162 -241.843 581.897C-233.84 462.128 -438.121 507.152 -508.066 415.447C-671.266 201.481 -191.305 -304.939 113.431 -204.883C418.168 -104.827 99.4323 158.816 190.58 217.841C281.721 276.865 449.64 343.211 425.376 534.404Z" fill="black"/>
</g>
<path d="M419.152 549.098C404.427 665.111 105.687 910.197 -175.054 773.765C-215.352 754.18 -241.026 719.648 -246.559 676.904C-249.241 656.205 -250.291 629.856 -248.067 596.591C-240.064 476.822 -444.345 521.846 -514.29 430.141C-677.49 216.175 -197.529 -290.245 107.207 -190.189C411.944 -90.1334 93.2087 173.51 184.357 232.535C275.5 291.552 443.419 357.898 419.152 549.098Z" fill="url(#paint0_linear_296_5617)"/>
<g opacity="0.2">
<path d="M365.863 563.693C335.232 669.479 40.4998 861.634 -179.629 702.343C-211.227 679.477 -227.943 644.474 -226.073 604.214C-225.168 584.718 -221.99 560.18 -214.923 529.611C-189.488 419.562 -372.03 437.373 -417.926 344.202C-525.027 126.819 -34.0537 -286.303 212.339 -157.911C458.729 -29.5236 143.944 177.488 213.133 242.855C282.312 308.219 416.343 389.354 365.863 563.693Z" fill="black"/>
</g>
<path d="M360.984 575.203C330.353 680.989 35.6262 873.14 -184.508 713.853C-216.106 690.987 -232.822 655.984 -230.952 615.724C-230.047 596.228 -226.868 571.69 -219.802 541.121C-194.362 431.069 -376.904 448.88 -422.805 355.712C-529.905 138.329 -38.9324 -274.793 207.46 -146.401C453.851 -18.0137 139.065 188.997 208.254 254.365C277.438 319.726 411.469 400.861 360.984 575.203Z" fill="url(#paint1_linear_296_5617)"/>
<g opacity="0.2">
<path d="M254.74 612.247C220.577 717.978 -78.6025 903.575 -291.227 737.174C-321.751 713.286 -337.073 677.576 -333.777 637.071C-332.182 617.454 -328.151 592.827 -320.052 562.222C-290.884 452.054 -472.568 465.061 -514.757 369.971C-613.203 148.104 -111.484 -254.773 128.288 -118.79C368.061 17.1928 48.4579 217.213 114.736 284.925C181.016 352.642 311.044 437.993 254.74 612.247Z" fill="black"/>
</g>
<path d="M249.123 625.505C214.96 731.236 -84.2196 916.833 -296.847 750.428C-327.371 726.541 -342.692 690.83 -339.401 650.329C-337.805 630.715 -333.776 606.084 -325.676 575.479C-296.509 465.311 -478.192 478.319 -520.38 383.232C-618.825 161.365 -117.112 -241.508 122.661 -105.525C362.436 30.4611 42.8306 230.477 109.114 298.187C175.401 365.904 305.429 451.256 249.123 625.505Z" fill="url(#paint2_linear_296_5617)"/>
<g opacity="0.2">
<path d="M427.314 564.537C428.588 564.984 453.897 573.227 487.252 547.572C519.01 523.146 545.053 492.008 542.665 446.148C540.146 397.705 500.639 370.272 459.047 379.154C417.454 388.035 388.816 423.534 393.207 447.864C397.732 472.925 428.049 489.787 436.134 502.021C444.174 514.189 397.658 554.071 427.314 564.537Z" fill="black"/>
</g>
<path d="M426.791 571.913C428.06 572.363 453.374 580.603 486.729 554.948C518.487 530.522 544.53 499.384 542.137 453.527C539.618 405.084 500.111 377.651 458.519 386.533C416.926 395.414 388.287 430.913 392.679 455.243C397.204 480.304 427.521 497.167 435.606 509.4C443.654 521.569 397.13 561.45 426.791 571.913Z" fill="url(#paint3_linear_296_5617)"/>
<g opacity="0.2">
<path d="M417.743 594.797C410.542 582.472 391.326 580.296 374.822 589.938C358.317 599.58 350.776 617.388 357.976 629.714C365.177 642.039 384.394 644.215 400.898 634.573C417.402 624.931 424.944 607.123 417.743 594.797Z" fill="black"/>
</g>
<path d="M414.934 601.432C407.733 589.106 388.516 586.93 372.012 596.572C355.508 606.214 347.966 624.022 355.167 636.348C362.368 648.674 381.584 650.849 398.088 641.207C414.593 631.565 422.134 613.757 414.934 601.432Z" fill="url(#paint4_linear_296_5617)"/>
<g opacity="0.2">
<path d="M1316.83 367.298C1320.73 368.666 1398.16 393.885 1500.21 315.395C1597.37 240.666 1677.05 145.402 1669.74 5.09753C1662.03 -143.109 1541.17 -227.038 1413.92 -199.866C1286.67 -172.694 1199.05 -64.0887 1212.49 10.3476C1226.33 87.0199 1319.08 138.609 1343.82 176.037C1368.42 213.263 1226.1 335.278 1316.83 367.298Z" fill="black"/>
</g>
<path d="M1315.23 389.865C1319.12 391.242 1396.56 416.452 1498.61 337.962C1595.77 263.233 1675.44 167.969 1668.13 27.6735C1660.42 -120.533 1539.55 -204.463 1412.3 -177.291C1285.05 -150.119 1197.43 -41.5128 1210.87 32.9235C1224.71 109.596 1317.47 161.185 1342.2 198.613C1366.82 235.842 1224.49 357.854 1315.23 389.865Z" fill="url(#paint5_linear_296_5617)"/>
<path d="M1238 261.689C1244.8 241.053 1262.99 228.545 1278.64 233.754C1294.29 238.963 1301.46 259.916 1294.66 280.552C1287.86 301.191 1265.64 325.914 1249.99 320.705C1234.34 315.498 1231.2 282.328 1238 261.689Z" fill="url(#paint6_linear_296_5617)"/>
<g style="mix-blend-mode:multiply">
<path d="M1078.42 551.544C1116.42 393.163 1239.95 304.361 1354.35 353.226C1468.75 402.091 1530.68 570.109 1492.68 728.489C1454.69 886.89 1308.65 1069.44 1194.25 1020.57C1079.86 971.726 1040.43 709.945 1078.42 551.544Z" fill="#CCCCCC"/>
</g>
<path d="M1064.42 561.544C1102.42 403.163 1225.95 314.361 1340.35 363.226C1454.75 412.091 1516.68 580.108 1478.68 738.489C1440.69 896.89 1294.65 1079.44 1180.25 1030.57C1065.86 981.726 1026.43 719.944 1064.42 561.544Z" fill="url(#paint7_linear_296_5617)"/>
<defs>
<linearGradient id="paint0_linear_296_5617" x1="344.719" y1="671.442" x2="-256.392" y2="-102.945" gradientUnits="userSpaceOnUse">
<stop offset="0.0015" stop-color="#83F4B7"/>
<stop offset="0.0621" stop-color="#88F6C8"/>
<stop offset="0.317" stop-color="#96FDD8"/>
<stop offset="0.5315" stop-color="#9BFFE7"/>
</linearGradient>
<linearGradient id="paint1_linear_296_5617" x1="256.459" y1="693.886" x2="-187.889" y2="-66.7113" gradientUnits="userSpaceOnUse">
<stop offset="0.5879" stop-color="#85FDCB"/>
<stop offset="0.8691" stop-color="#85FDD2"/>
</linearGradient>
<linearGradient id="paint2_linear_296_5617" x1="163.139" y1="728.691" x2="31.5279" y2="47.3872" gradientUnits="userSpaceOnUse">
<stop stop-color="#0DD199"/>
<stop offset="1" stop-color="#12FFBB"/>
</linearGradient>
<linearGradient id="paint3_linear_296_5617" x1="525.988" y1="516.822" x2="410.621" y2="412.693" gradientUnits="userSpaceOnUse">
<stop stop-color="#0EE9AA"/>
<stop offset="0.4131" stop-color="#1FFDBA"/>
<stop offset="0.7702" stop-color="#00FFB6"/>
<stop offset="0.9968" stop-color="#00FFB3"/>
</linearGradient>
<linearGradient id="paint4_linear_296_5617" x1="414.935" y1="601.429" x2="355.168" y2="636.345" gradientUnits="userSpaceOnUse">
<stop stop-color="#41FAC3"/>
<stop offset="0.4131" stop-color="#1FFDE2"/>
<stop offset="0.7702" stop-color="#08FED2"/>
<stop offset="0.9968" stop-color="#00FFD1"/>
</linearGradient>
<linearGradient id="paint5_linear_296_5617" x1="1618.72" y1="221.32" x2="1265.76" y2="-97.2543" gradientUnits="userSpaceOnUse">
<stop stop-color="#0EE9AA"/>
<stop offset="0.4131" stop-color="#1FFDBA"/>
<stop offset="0.7702" stop-color="#00FFB6"/>
<stop offset="0.9968" stop-color="#00FFB3"/>
</linearGradient>
<linearGradient id="paint6_linear_296_5617" x1="1292.7" y1="286.705" x2="1235.98" y2="268.013" gradientUnits="userSpaceOnUse">
<stop offset="0.0107" stop-color="#00E5AE"/>
<stop offset="0.247" stop-color="#12D9B5"/>
<stop offset="0.7401" stop-color="#52EBAB"/>
<stop offset="1" stop-color="#73EDD0"/>
</linearGradient>
<linearGradient id="paint7_linear_296_5617" x1="1467.84" y1="785.745" x2="1036" y2="682.133" gradientUnits="userSpaceOnUse">
<stop offset="0.0107" stop-color="#00E5AE"/>
<stop offset="0.247" stop-color="#12D9B5"/>
<stop offset="0.7401" stop-color="#52EAC6"/>
<stop offset="1" stop-color="#73EDD0"/>
</linearGradient>
</defs>
</svg>
