<?xml version="1.0" encoding="utf-8"?>
<svg width="60" height="60" viewBox="2.291 0.328 52.006 52.001" fill="none" xmlns="http://www.w3.org/2000/svg">
  <g filter="url(#filter0_d_430_287)" transform="matrix(1, 0, 0, 1, -1.706783, 0.328228)">
    <circle cx="30" cy="26" r="26" fill="#F4FBF9"/>
    <path d="M42 28C43.1046 28 44 27.1046 44 26C44 24.8954 43.1046 24 42 24V28ZM16.5858 24.5858C15.8047 25.3668 15.8047 26.6332 16.5858 27.4142L29.3137 40.1421C30.0948 40.9232 31.3611 40.9232 32.1421 40.1421C32.9232 39.3611 32.9232 38.0948 32.1421 37.3137L20.8284 26L32.1421 14.6863C32.9232 13.9052 32.9232 12.6389 32.1421 11.8579C31.3611 11.0768 30.0948 11.0768 29.3137 11.8579L16.5858 24.5858ZM42 24H18V28H42V24Z" fill="#12FFBB"/>
  </g>
  <defs>
    <filter id="filter0_d_430_287" x="0" y="0" width="60" height="60" filterUnits="userSpaceOnUse" color-interpolation-filters="sRGB">
      <feFlood flood-opacity="0" result="BackgroundImageFix"/>
      <feColorMatrix in="SourceAlpha" type="matrix" values="0 0 0 0 0 0 0 0 0 0 0 0 0 0 0 0 0 0 127 0" result="hardAlpha"/>
      <feOffset dy="4"/>
      <feGaussianBlur stdDeviation="2"/>
      <feComposite in2="hardAlpha" operator="out"/>
      <feColorMatrix type="matrix" values="0 0 0 0 0 0 0 0 0 0 0 0 0 0 0 0 0 0 0.25 0"/>
      <feBlend mode="normal" in2="BackgroundImageFix" result="effect1_dropShadow_430_287"/>
      <feBlend mode="normal" in="SourceGraphic" in2="effect1_dropShadow_430_287" result="shape"/>
    </filter>
  </defs>
</svg>