<svg width="256" height="257" viewBox="0 0 256 257" fill="none" xmlns="http://www.w3.org/2000/svg">
<path d="M148.289 199.453C97.1696 208.231 81.4496 201.427 76.8079 193.259C74.1092 188.51 73.8306 180.968 66.1322 171.448C59.6439 163.424 55.9112 163.92 53.1323 157.768C48.3118 147.097 57.5065 141.098 53.7594 130.763C49.6569 119.448 36.7499 121.44 31.1549 107.927C28.0944 100.535 31.6869 99.2884 28.9627 91.9218C23.4095 76.9055 7.04884 78.21 1.61357 64.6666C-1.55077 56.7821 0.0778422 46.5816 5.28377 40.5734C15.7254 28.5225 40.7265 33.1442 54.8677 44.3188C56.6894 45.7583 70.3995 56.9079 71.7268 73.4183C72.5277 83.3799 68.2364 88.0248 71.7724 94.0899C76.7606 102.646 88.0567 98.1284 93.0178 105.73C99.7401 116.03 83.7948 131.67 91.4773 143.261C94.4509 147.748 97.5941 146.543 100.567 151.695C105.456 160.168 99.7584 168.288 100.883 175.341C102.09 182.914 111.628 192.163 148.289 199.453Z" fill="url(#paint0_linear_334_736)"/>
<path opacity="0.28" d="M53.7282 67.8579C60.3617 83.1645 49.5485 92.8382 57.3156 104.912C63.6234 114.718 73.5703 112.713 76.2904 121.843C78.8971 130.592 70.4715 134.819 72.7763 144.812C74.676 153.05 81.0722 153.091 87.4611 163.745C93.8923 174.469 91.2921 180.898 94.5949 187.449C98.1406 194.481 108.201 201.075 135.276 201.461C139.338 200.911 143.667 200.247 148.289 199.453C111.628 192.163 102.091 182.914 100.883 175.341C99.7584 168.288 105.456 160.168 100.567 151.695C97.5942 146.543 94.4509 147.748 91.4774 143.261C83.7948 131.67 99.7401 116.03 93.018 105.73C88.0567 98.1284 76.7607 102.646 71.7724 94.0899C68.2364 88.0249 72.5278 83.3799 71.7269 73.4182C70.3995 56.9079 56.6893 45.7584 54.8677 44.3188C40.7266 33.1442 15.7255 28.5225 5.2838 40.5734C5.23359 40.6314 5.18597 40.6922 5.13647 40.7508C12.1192 40.9988 20.6804 42.4215 29.5448 46.6483C36.4285 49.9309 48.4416 55.6592 53.7282 67.8579Z" fill="white"/>
<path d="M131.847 204.731C114.558 200.333 109.648 195.002 108.889 190.528C107.647 183.205 117.61 178.691 116.276 170.346C114.74 160.732 100.24 158.738 100.687 152.417C101.169 145.586 118.24 146.075 121.763 136.239C124.957 127.323 112.643 122.135 112.738 109.185C112.851 93.7228 130.484 90.0939 133.583 72.492C135.699 60.4728 129.574 50.2559 124.767 42.2382C113.952 24.1979 91.7319 6.65708 66.5876 8.43491C63.158 8.67746 43.1403 10.0929 38.1822 21.8301C33.1561 33.7282 45.1543 52.5672 57.4292 62.5512C66.3263 69.7877 73.7826 71.0821 74.1758 76.7796C74.7059 84.4605 61.5109 87.2682 60.2585 98.4608C59.5963 104.378 62.6313 109.434 65.6166 114.406C72.3833 125.677 78.9821 125.257 79.9503 131.502C81.2751 140.048 69.339 143.539 66.6893 156.325C64.8014 165.435 68.8482 173.374 71.1284 177.847C80.0171 195.286 103.957 205.273 131.847 204.731Z" fill="url(#paint1_linear_334_736)"/>
<mask id="mask0_334_736" style="mask-type:luminance" maskUnits="userSpaceOnUse" x="37" y="8" width="98" height="197">
<path d="M131.847 204.731C114.558 200.333 109.648 195.002 108.889 190.528C107.647 183.205 117.61 178.691 116.276 170.346C114.74 160.732 100.24 158.738 100.687 152.417C101.169 145.586 118.24 146.075 121.763 136.239C124.957 127.323 112.643 122.135 112.738 109.185C112.851 93.7228 130.484 90.0939 133.583 72.492C135.699 60.4728 129.574 50.2559 124.767 42.2382C113.952 24.1979 91.7319 6.65708 66.5876 8.43491C63.158 8.67746 43.1403 10.0929 38.1822 21.8301C33.1561 33.7282 45.1543 52.5672 57.4292 62.5512C66.3263 69.7877 73.7826 71.0821 74.1758 76.7796C74.7059 84.4605 61.5109 87.2682 60.2585 98.4608C59.5963 104.378 62.6313 109.434 65.6166 114.406C72.3833 125.677 78.9821 125.257 79.9503 131.502C81.2751 140.048 69.339 143.539 66.6893 156.325C64.8014 165.435 68.8482 173.374 71.1284 177.847C80.0171 195.286 103.957 205.273 131.847 204.731Z" fill="white"/>
</mask>
<g mask="url(#mask0_334_736)">
<path opacity="0.7" d="M31.8222 15.8689C42.7014 20.8577 53.5594 25.8978 64.4019 30.9721C69.8317 33.4912 75.2389 36.0576 80.6023 38.7205C83.2859 40.0481 85.9627 41.391 88.6204 42.7767C91.2768 44.1645 93.9182 45.5886 96.4895 47.1549C97.7736 47.9403 99.0401 48.763 100.255 49.6743C100.866 50.1234 101.451 50.6147 102.025 51.121C102.588 51.6415 103.13 52.1914 103.623 52.7932C104.112 53.3983 104.545 54.0594 104.89 54.7677C105.236 55.4755 105.487 56.2287 105.654 56.9902C105.965 58.5158 106.009 60.1028 105.72 61.6345C105.439 63.1672 104.863 64.6228 104.136 65.9706C103.408 67.3225 102.52 68.5626 101.592 69.7562C99.7244 72.1402 97.6417 74.3035 95.6487 76.5242C93.6531 78.7395 91.72 81.0066 90.1248 83.4915C89.3412 84.7392 88.6245 86.0283 88.0605 87.3822C87.5115 88.7398 87.0776 90.1425 86.8289 91.5827C86.37 94.4597 86.5471 97.465 87.4413 100.242C87.893 101.629 88.5361 102.95 89.2989 104.204C90.0644 105.457 90.9607 106.637 91.8818 107.808C92.8049 108.978 93.7639 110.135 94.6434 111.371C95.0897 111.983 95.5002 112.626 95.8953 113.278C96.2724 113.942 96.6407 114.615 96.935 115.325C97.552 116.73 97.9527 118.234 98.1316 119.757C98.3136 121.281 98.2982 122.817 98.1191 124.335C97.9354 125.853 97.5668 127.355 96.9996 128.777C96.4291 130.198 95.6914 131.545 94.8467 132.803C93.1759 135.336 91.1005 137.531 89.6511 140.081C88.9238 141.349 88.3968 142.719 88.1594 144.146C87.9364 145.573 87.9739 147.048 88.2556 148.479C88.5376 149.907 89.0564 151.284 89.7745 152.557C90.504 153.825 91.3984 155.002 92.3887 156.103C94.3542 158.319 96.6486 160.283 98.5104 162.692C99.44 163.891 100.238 165.218 100.779 166.654C101.309 168.094 101.572 169.63 101.572 171.158C101.564 172.685 101.307 174.225 100.75 175.654C100.194 177.085 99.3692 178.376 98.5567 179.627C97.7583 180.876 96.9607 182.146 96.7387 183.573C96.4707 184.99 96.8043 186.464 97.4655 187.75C98.1499 189.036 99.1122 190.174 100.199 191.173C101.285 192.177 102.479 193.068 103.72 193.885C106.217 195.505 108.88 196.87 111.605 198.088C114.33 199.311 117.116 200.399 119.929 201.408C122.744 202.414 125.585 203.351 128.448 204.217C134.17 205.963 139.958 207.489 145.771 208.911L145.761 208.951C139.936 207.58 134.132 206.105 128.391 204.409C125.518 203.567 122.665 202.655 119.836 201.672C117.009 200.685 114.206 199.62 111.46 198.417C108.712 197.217 106.021 195.869 103.481 194.253C102.217 193.437 100.997 192.543 99.8751 191.525C98.7521 190.513 97.7425 189.343 97.0136 187.986C96.3052 186.629 95.9306 185.031 96.2139 183.485C96.32 182.709 96.6159 181.98 96.9452 181.291C97.2807 180.599 97.6924 179.965 98.0903 179.327C98.8994 178.069 99.6876 176.815 100.212 175.447C100.735 174.082 100.972 172.623 100.973 171.159C100.965 169.694 100.707 168.239 100.197 166.873C99.6755 165.51 98.9095 164.245 98.0014 163.087C96.1858 160.757 93.894 158.81 91.8757 156.562C90.8607 155.445 89.9262 154.232 89.1567 152.909C88.398 151.58 87.8404 150.126 87.5361 148.62C87.2324 147.116 87.1819 145.555 87.4136 144.025C87.6588 142.497 88.219 141.029 88.9728 139.7C89.7162 138.361 90.6266 137.145 91.5303 135.95C92.4389 134.757 93.3495 133.581 94.1663 132.352C94.9868 131.125 95.6904 129.831 96.2333 128.474C96.7723 127.116 97.1199 125.687 97.2936 124.236C97.6285 121.332 97.3511 118.328 96.1582 115.661C95.0113 112.965 93.0677 110.686 91.2067 108.342C90.276 107.164 89.3557 105.958 88.5586 104.658C87.7644 103.359 87.0859 101.973 86.6088 100.514C85.6635 97.5911 85.4738 94.4598 85.9506 91.4345C86.209 89.9227 86.6608 88.453 87.2315 87.0374C87.8167 85.6258 88.5565 84.2906 89.3615 83.0047C90.9988 80.4456 92.9618 78.1404 94.9644 75.9092C96.9639 73.6748 99.0339 71.515 100.854 69.1812C101.759 68.0137 102.618 66.8098 103.307 65.5225C103.996 64.2383 104.53 62.8761 104.785 61.4633C105.05 60.0518 105.003 58.6006 104.72 57.1947C104.429 55.7915 103.798 54.5004 102.893 53.3825C102.439 52.8249 101.932 52.3052 101.398 51.8082C100.852 51.3231 100.293 50.8485 99.6996 50.4093C98.524 49.5198 97.2816 48.7053 96.0167 47.9249C93.4826 46.3675 90.8586 44.9392 88.2169 43.5461C85.5736 42.1547 82.9062 40.8036 80.2312 39.4672L72.1908 35.483C69.514 34.1467 66.8059 32.8749 64.114 31.5697C53.3267 26.3885 42.5551 21.1731 31.8049 15.9065L31.8222 15.8689Z" fill="white"/>
</g>
<path d="M121.956 200.097C117.779 202.273 110.976 205.466 102.174 207.981C84.0468 213.16 52.8631 216.767 42.1464 202.759C40.8291 201.038 37.3483 196.488 37.8098 190.867C38.2897 185.024 42.6041 183.22 41.9617 179.567C41.0832 174.572 32.4914 174.951 23.9495 169.217C16.6952 164.348 7.96602 154.056 8.80912 141.949C9.7337 128.674 21.6164 121.126 22.909 120.333C31.6917 114.946 45.2266 112.998 53.6889 119.802C61.1766 125.824 61.8775 136.435 62.3399 143.437C63.3865 159.281 56.7594 166.407 61.533 171.955C65.8801 177.008 73.2534 173.28 78.5377 180.021C80.7959 182.902 80.1509 184.478 83.6805 190.115C86.351 194.38 89.2351 197.495 90.421 198.6C99.5994 207.152 120.136 200.691 121.956 200.097Z" fill="url(#paint2_linear_334_736)"/>
<mask id="mask1_334_736" style="mask-type:luminance" maskUnits="userSpaceOnUse" x="8" y="115" width="114" height="98">
<path d="M121.956 200.097C117.779 202.273 110.976 205.466 102.174 207.981C84.0468 213.16 52.8631 216.767 42.1464 202.759C40.8291 201.038 37.3483 196.488 37.8098 190.867C38.2897 185.024 42.6041 183.22 41.9617 179.567C41.0832 174.572 32.4914 174.951 23.9495 169.217C16.6952 164.348 7.96602 154.056 8.80912 141.949C9.7337 128.674 21.6164 121.126 22.909 120.333C31.6917 114.946 45.2266 112.998 53.6889 119.802C61.1766 125.824 61.8775 136.435 62.3399 143.437C63.3865 159.281 56.7594 166.407 61.533 171.955C65.8801 177.008 73.2534 173.28 78.5377 180.021C80.7959 182.902 80.1509 184.478 83.6805 190.115C86.351 194.38 89.2351 197.495 90.421 198.6C99.5994 207.152 120.136 200.691 121.956 200.097Z" fill="white"/>
</mask>
<g mask="url(#mask1_334_736)">
<path opacity="0.5" d="M110.595 205.359C101.971 205.359 93.407 204.795 85.0085 203.671C59.6135 200.272 56.7437 194.585 55.8007 192.716C54.3348 189.812 54.6011 187.369 54.8829 184.783C55.1997 181.876 55.5271 178.87 53.6214 174.698C51.8829 170.893 49.6168 169.126 47.4254 167.416C45.2883 165.75 43.0784 164.027 41.4528 160.438C39.3582 155.814 39.9929 152.062 40.6648 148.089C41.0334 145.911 41.4144 143.659 41.3739 141.136C41.2143 131.171 34.34 120.966 20.9419 110.804L21.1347 110.55C34.6149 120.774 41.5317 131.063 41.6928 141.131C41.7336 143.683 41.3503 145.95 40.9794 148.142C40.3156 152.065 39.6887 155.771 41.7433 160.306C43.3363 163.823 45.4177 165.447 47.6214 167.165C49.8432 168.898 52.1405 170.689 53.9113 174.566C55.8536 178.818 55.5062 182.005 55.1999 184.817C54.9232 187.355 54.6621 189.753 56.0853 192.573C57.0096 194.404 59.8224 199.979 85.0508 203.355C97.5313 205.025 110.381 205.456 123.245 204.636L123.265 204.955C119.037 205.224 114.808 205.359 110.595 205.359Z" fill="white"/>
</g>
<path d="M120.652 239.048L56.1252 234.14V52.5608L120.652 47.7817V239.048Z" fill="url(#paint3_linear_334_736)"/>
<path d="M61.1128 226.203V60.5073L120.652 56.5054V230.325L61.1128 226.203Z" fill="white"/>
<mask id="mask2_334_736" style="mask-type:luminance" maskUnits="userSpaceOnUse" x="61" y="56" width="60" height="175">
<path d="M61.1128 226.203V60.5073L120.652 56.5054V230.325L61.1128 226.203Z" fill="white"/>
</mask>
<g mask="url(#mask2_334_736)">
<path d="M297.305 99.5376L233.276 101.418C233.063 66.261 232.887 16.0268 233.234 11.3648C233.216 11.6021 233.097 12.8571 232.482 14.2741L223.999 6.93652C223.09 9.05007 223.062 10.8176 222.988 15.5412C222.947 18.2215 222.917 22.0686 222.902 26.9758C222.875 35.1886 222.885 46.5234 222.932 60.6665C223.01 84.7274 223.168 108.928 223.17 109.169L223.218 116.481L245.183 116.071V168.739L203.758 167.951L179.008 118.423L145.01 119.028L190.673 36.3765L183.451 27.5525L133.251 119.237L111.65 119.622C111.68 111.306 111.73 96.5244 111.759 81.8037C111.786 68.8011 111.792 58.3914 111.776 50.8639C111.746 35.8529 111.691 35.6814 111.385 34.7299L107.349 38.2898C107.188 37.7873 107.153 37.3618 107.148 37.2816C107.359 40.4048 107.265 85.9941 107.138 119.702L84.5806 120.103C80.4839 95.8695 70.9054 39.2451 70.5833 37.6806L63.0699 42.4483L63.0516 42.3554C63.4608 44.545 71.927 94.8905 77.5818 128.578L78.3959 133.427L125.664 133.093L96.2982 186.727L38.6655 184.671V197.459L100.103 200.31L137.284 133.011L174.302 132.749L191.623 167.72L145.86 166.849V266.187L150.654 266.645V174.381L195.471 175.49L240.668 266.743L248.989 258.463L207.676 175.791L250.739 176.856V115.968L297.304 115.1V99.5376H297.305Z" fill="#D8DEE8"/>
</g>
<path d="M164.664 228.615H239.921V58.4675H164.664V228.615Z" fill="url(#paint4_linear_334_736)"/>
<path d="M233.819 220.842L233.819 66.1221L164.664 66.1221L164.664 220.842H233.819Z" fill="white"/>
<mask id="mask3_334_736" style="mask-type:luminance" maskUnits="userSpaceOnUse" x="164" y="66" width="70" height="155">
<path d="M233.819 220.842L233.819 66.1221L164.664 66.1221L164.664 220.842H233.819Z" fill="white"/>
</mask>
<g mask="url(#mask3_334_736)">
<path d="M261.181 109.044H203.978C203.778 80.2822 203.614 39.1803 203.938 35.3933C203.922 35.586 203.81 36.6033 203.235 37.716L195.248 31.0303C194.386 32.698 194.36 34.152 194.29 38.0382C194.251 40.2435 194.223 43.4112 194.208 47.4535C194.183 54.219 194.192 63.5594 194.236 75.2156C194.311 95.0436 194.461 114.986 194.462 115.185L194.508 121.209H215.012V163.915H175.788L151.19 122.161H115.87L162.896 53.1099L155.672 45.1424L103.22 122.161H79.3682C79.4022 114.707 79.4582 101.458 79.4916 88.2635C79.5212 76.6096 79.5275 67.2791 79.5106 60.5309C79.4769 47.0733 79.4149 46.9155 79.0706 46.0391L74.5224 48.933C74.3403 48.469 74.3003 48.0836 74.2942 48.0111C74.5333 50.8363 74.4265 91.8402 74.2838 122.161H48.3041C43.4839 99.8205 32.0883 47.0373 31.702 45.5627L22.6329 49.4096L22.6107 49.3215C23.1074 51.3935 33.3122 98.6174 40.0502 129.854L41.0151 134.326H94.9348L61.9164 182.809H-7.61353V194.974H66.2815L107.585 134.326H146.409L163.84 163.915H116.776V250.621H121.861V170.386H167.652L210.85 243.71L218.499 236.413L179.601 170.386H220.097V121.209H261.181V109.044Z" fill="#D8DEE8"/>
</g>
<path d="M164.664 228.615L120.652 239.048V47.7817L164.664 58.4675V228.615Z" fill="#177D60"/>
<path d="M120.652 230.325V56.5054L164.664 66.2278V220.854L120.652 230.325Z" fill="#D8DEE8"/>
<mask id="mask4_334_736" style="mask-type:luminance" maskUnits="userSpaceOnUse" x="120" y="56" width="45" height="175">
<path d="M120.652 230.325V56.5054L164.664 66.2278V220.854L120.652 230.325Z" fill="white"/>
</mask>
<g mask="url(#mask4_334_736)">
<path d="M208.648 113.519L184.001 111.056C183.908 83.8623 183.832 44.9918 183.983 41.4581C183.975 41.6378 183.923 42.5834 183.655 43.5544L179.892 36.027C179.48 37.4926 179.468 38.8811 179.434 42.5927C179.415 44.6992 179.402 47.7296 179.395 51.5996C179.383 58.077 179.388 67.0254 179.409 78.1949C179.444 97.192 179.516 116.297 179.517 116.488L179.538 122.258L189.055 122.882V162.626L170.358 163.65L157.512 121.782L137.322 120.511L163.742 52.9856L159.923 43.9328L129.531 120.02L113.941 119.039C113.964 110.526 114.002 95.3959 114.025 80.3292C114.045 67.0229 114.05 56.3678 114.038 48.6582C114.015 33.2821 113.973 33.0902 113.739 32.0243L110.62 34.4918C110.495 33.9234 110.467 33.4718 110.463 33.3871C110.628 36.6859 110.554 83.899 110.456 118.819L91.6656 117.636C87.9878 90.2499 79.036 23.6322 78.726 21.7161L71.3213 24.5079L71.3028 24.3919C71.7149 27.1158 80.0152 87.7566 85.3289 126.646L86.0794 132.137L124.253 133.232L101.721 189.641L44.7192 195.796V212.066L104.846 203.512L132.255 133.461L154.905 134.111L164.235 163.985L137.868 165.428V258.631L140.904 257.723V172.162L166.212 170.316L187.167 237.416L190.621 229.691L172.268 169.874L191.333 168.483V123.032L208.648 124.169V113.519Z" fill="#A2A7AE"/>
</g>
<path d="M256 55.6167C256 79.3826 222.706 122.75 207.638 141.16C203.888 145.741 196.879 145.741 193.129 141.16C178.062 122.75 144.767 79.3827 144.767 55.6167C144.767 24.9004 169.667 0 200.384 0C231.1 0 256 24.9004 256 55.6167Z" fill="#14DBA2"/>
<path d="M200.383 86.6349C217.514 86.6349 231.401 72.7475 231.401 55.6166C231.401 38.4857 217.514 24.5984 200.383 24.5984C183.252 24.5984 169.365 38.4857 169.365 55.6166C169.365 72.7475 183.252 86.6349 200.383 86.6349Z" fill="white"/>
<g opacity="0.3">
<path d="M200.137 118.324C203.666 95.0868 219.011 87.6488 216.377 65.7071C213.34 40.4024 190.934 33.6627 190.394 11.1413C190.306 7.51547 190.8 4.01911 191.73 0.671143C165.124 4.8278 144.766 27.844 144.766 55.6167C144.766 79.3826 178.061 122.75 193.129 141.16C195.336 143.856 198.672 144.963 201.808 144.486C199.112 134.308 199.03 125.616 200.137 118.324Z" fill="#12FFBB"/>
</g>
<path d="M200.383 179.586C206.662 179.586 211.751 174.496 211.751 168.218C211.751 161.939 206.662 156.85 200.383 156.85C194.105 156.85 189.015 161.939 189.015 168.218C189.015 174.496 194.105 179.586 200.383 179.586Z" fill="#0EE9AA"/>
<path d="M108.912 239.446C92.3254 237.43 88.9014 241.328 72.027 240.563C55.4289 239.811 54.2899 235.838 40.731 236.651C28.5409 237.382 12.8441 241.59 12.7882 246.152C12.7267 251.173 31.5945 258.232 49.6728 255.652C59.7323 254.217 59.038 251.297 68.6739 250.064C86.1309 247.831 91.2628 257.05 108.912 255.094C119.123 253.961 129.784 249.502 129.589 246.152C129.344 241.929 111.867 239.805 108.912 239.446Z" fill="#D8DEE8"/>
<path d="M104.459 92.2234C104.078 91.6334 103.384 90.3781 103.339 88.6923C103.253 85.4166 105.682 82.8615 106.009 83.0082C106.185 83.0873 105.962 84.0471 105.837 84.4723C105.576 85.358 105.297 85.4435 105.32 85.8503C105.368 86.6877 106.577 86.7201 107.215 87.8312C107.674 88.6313 107.711 89.7712 107.215 90.6732C106.392 92.1697 104.537 92.2224 104.459 92.2234Z" fill="url(#paint5_linear_334_736)"/>
<path d="M52.5602 163.373L53.494 160.16L49.5953 157.27L47.165 156.362L48.6039 160.858L52.5602 163.373Z" fill="url(#paint6_linear_334_736)"/>
<path d="M57.3861 228.093C57.3861 228.093 55.2536 233.457 55.8148 235.836C53.5252 235.792 52.0439 235.5 52.0439 235.5C52.0439 235.5 52.9641 233.053 53.1437 231.841C53.3863 230.204 53.3683 227.554 53.3683 227.554L57.3861 228.093Z" fill="url(#paint7_linear_334_736)"/>
<path d="M80.8926 240.64C80.7546 240.807 80.51 241.154 80.4894 241.626C80.4783 241.882 80.5368 242.092 80.6104 242.286C80.974 243.243 81.545 243.369 82.1613 244.384C82.5378 245.004 82.4668 245.191 82.8116 245.471C83.2663 245.84 83.8163 245.862 84.2931 245.867C85.0986 245.876 86.2586 245.848 87.7189 245.674C86.9535 244.687 86.1398 243.685 85.2744 242.673C84.8947 242.23 84.5157 241.797 84.1379 241.374L81.8878 240.613C81.5559 240.622 81.2242 240.631 80.8926 240.64Z" fill="#004848"/>
<path d="M82.7638 229.716C82.7638 229.716 84.05 236.426 82.4134 238.306C81.0192 240.185 83.0868 238.844 83.0868 238.844L85.5559 240.999L87.0372 243.558C87.0372 243.558 85.6736 236.99 86.0373 234.383C86.4009 231.777 86.5827 230.019 86.5827 230.019L82.7638 229.716Z" fill="url(#paint8_linear_334_736)"/>
<path d="M87.6133 156.307C87.6133 156.307 91.0685 159.399 91.0685 172.129C91.0685 184.858 89.4318 212.5 89.4318 212.5L86.8128 232.29C86.8128 232.29 84.0972 232.387 82.2787 231.841C80.6421 224.385 77.9751 211.773 79.248 201.225C79.7936 189.768 74.7017 175.402 74.7017 175.402C74.7017 175.402 70.3372 189.95 67.2457 197.224C64.1541 204.498 58.2683 227.286 57.7228 228.923C54.1054 229.251 52.5603 228.295 52.5603 228.295C52.5603 228.295 54.8797 203.771 57.0619 194.497C59.2441 185.222 59.0624 162.854 62.6994 156.489C70.8827 153.216 87.6133 156.307 87.6133 156.307Z" fill="url(#paint9_linear_334_736)"/>
<path d="M87.6132 156.307C87.6132 156.307 91.0686 159.399 91.0686 172.129C91.0686 184.858 89.4318 212.5 89.4318 212.5L86.8128 232.29C86.8128 232.29 84.0972 232.387 82.2787 231.841C80.642 224.385 77.9751 211.773 79.248 201.225C79.7935 189.768 74.7017 175.402 74.7017 175.402C74.7017 175.402 70.3372 189.95 67.2457 197.224C64.1541 204.498 58.2682 227.287 57.7227 228.923C54.1055 229.251 52.5603 228.295 52.5603 228.295C52.5603 228.295 54.8797 203.771 57.0619 194.497C59.2443 185.222 59.0624 162.854 62.6993 156.489C70.8826 153.216 87.6132 156.307 87.6132 156.307Z" fill="#334049"/>
<path opacity="0.25" d="M69.664 179.632C68.5867 186.635 66.4319 190.406 61.0448 195.254C56.7353 198.486 59.9675 205.49 58.3512 210.877C57.8126 212.493 56.1965 214.109 55.6578 215.725C53.6531 219.734 55.5256 224.638 54.6166 228.883C53.2022 228.688 52.5603 228.295 52.5603 228.295C52.5603 228.295 54.8797 203.771 57.0619 194.497C59.2443 185.222 59.0624 162.854 62.6993 156.489C70.8826 153.216 87.6131 156.308 87.6131 156.308C87.6131 156.308 91.0685 159.399 91.0685 172.129C91.0685 173.162 91.0575 174.294 91.0377 175.5C87.4506 178.675 80.1143 179.38 75.5896 175.861C75.3163 175.656 75.0256 175.531 74.7251 175.47C74.7112 175.429 74.7017 175.402 74.7017 175.402C74.7017 175.402 74.6941 175.427 74.6827 175.465C72.6235 175.089 70.1313 177.763 69.664 179.632Z" fill="#334049"/>
<path d="M56.3757 237.872C56.3757 237.872 56.9072 237.872 56.8629 238.559C56.8185 239.245 57.1022 241.607 54.4007 241.717C51.6991 241.828 51.2825 241.526 51.1939 241.526C51.1052 241.526 51.9026 239.267 51.9026 239.267L52.7663 238.16L55.0914 237.916L56.3757 237.872Z" fill="#004848"/>
<path d="M50.3857 240.242C50.4433 239.672 50.7624 238.775 51.0834 238.052C51.5603 236.979 51.1688 236.578 51.6246 235.6C51.7823 235.262 51.9355 234.942 52.2685 234.624C52.3452 234.551 53.0906 233.862 54.1762 233.897C54.3898 233.904 54.7188 233.918 55.0743 234.108C55.4931 234.331 55.703 234.667 55.8823 234.961C56.164 235.424 56.0993 235.566 56.5332 236.891C56.5681 236.997 56.6444 237.229 56.7032 237.548C56.7482 237.792 56.7663 237.998 56.7744 238.138C56.0657 238.138 53.342 238.249 52.7664 238.669C52.1906 239.09 51.9028 239.799 51.9028 240.507C51.9028 241.216 51.5484 241.548 51.194 241.526C50.8775 241.506 50.2486 240.92 50.3857 240.242Z" fill="#3C957C"/>
<path d="M83.1091 237.363C82.5005 237.372 82.0541 237.857 81.7174 239.024C81.3807 240.191 79.7645 241.224 81.65 240.977C83.5355 240.73 84.9047 243.401 85.578 244.389C86.2515 245.376 88.0591 246.254 88.0142 245.288C87.9693 244.323 87.1717 243.872 86.9473 242.885C86.7228 241.897 84.497 237.341 83.1091 237.363Z" fill="#3C957C"/>
<path d="M51.1295 157.844C50.682 156.6 47.8896 148.429 52.4029 140.977C56.0976 134.876 62.4908 132.886 63.4024 132.617C68.9516 130.978 71.7327 133.083 73.4836 131.146C76.4547 127.858 73.0891 116.658 66.5791 114.414C59.2409 111.886 50.4378 121.609 46.8704 127.996C42.1903 136.375 43.3421 144.703 43.613 146.418C44.3167 150.875 45.9528 154.275 47.1651 156.362C48.4866 156.856 49.808 157.35 51.1295 157.844Z" fill="url(#paint10_linear_334_736)"/>
<path d="M70.2275 112.145C76.7777 111.883 81.8292 111.987 84.6827 114.839C87.6967 117.85 84.6509 121.251 85.3053 129.129C86.3072 141.191 93.9935 144.138 94.5718 156.376C94.7667 160.499 94.069 163.869 93.5271 165.898C91.8402 167.999 89.0793 170.964 85.0046 173.443C79.0752 177.05 75.6366 176.421 67.1211 178.752C53.1922 182.564 51.9531 187.104 45.0464 185.947C38.0661 184.778 31.9419 178.904 32.6816 175.678C33.1248 173.746 35.9386 174.293 39.1783 171.347C43.3537 167.549 41.7435 163.925 44.9181 159.844C49.4779 153.982 55.8305 157.565 59.7163 152.485C63.6469 147.347 62.0878 137.22 58.7746 131.701C56.6104 128.096 55.6836 123.871 53.8421 120.091C53.689 119.777 53.5114 119.262 53.5897 118.618C53.8885 116.156 57.9923 114.82 61.1005 113.841C65.8411 112.347 69.6888 112.167 70.2275 112.145Z" fill="url(#paint11_linear_334_736)"/>
<path d="M75.8097 112.563L74.5177 112.165C74.5177 112.165 74.18 113.914 70.0261 114.133C67.7207 114.133 66.2301 112.841 66.2301 112.841L65.3474 113.484C65.3474 113.484 67.284 115.903 70.364 115.842C74.3389 115.762 75.8097 112.563 75.8097 112.563Z" fill="#007E5A"/>
<path d="M73.1792 107.242C72.9302 105.321 71.4117 104.09 71.0802 103.827C69.6929 102.724 69.4105 102.613 68.934 102.522L68.2832 102.424C68.2832 102.424 68.2482 102.424 68.2121 102.427C67.8312 102.45 66.6895 102.895 66.4818 103.041C65.8186 103.508 66.307 106.81 68.3173 110.918C68.3964 111.266 68.4755 111.613 68.5545 111.961C66.8023 112.269 66.3683 112.585 66.3545 112.838C66.3247 113.384 68.2431 114.082 70.0211 114.127C72.2508 114.184 74.6183 113.225 74.573 112.509C74.5546 112.219 74.134 111.862 72.515 111.511C72.2619 111.155 72.0091 110.799 71.7561 110.443C71.9858 110.165 73.3626 108.657 73.1792 107.242Z" fill="url(#paint12_linear_334_736)"/>
<path d="M70.423 106.519C69.9173 106.216 69.532 106.867 69.7703 107.435C70.0084 108.004 70.8089 108.36 71.2945 108.021C71.78 107.682 71.1035 106.926 70.423 106.519Z" fill="url(#paint13_linear_334_736)"/>
<path d="M4.87355 106.509C11.5305 99.2855 27.0195 101.267 35.6108 107.068C39.6028 109.764 41.6517 112.948 46.3688 113.215C49.9547 113.419 55.6592 112.07 58.6636 108.186C59.0421 107.696 60.556 105.644 62.8292 103.056C63.8314 101.915 64.828 100.844 66.3728 100.602C66.7653 100.54 68.0709 100.328 68.934 101.171C69.6335 101.854 69.805 103.042 69.5982 103.898C69.4744 104.41 69.3144 104.464 69.3372 104.799C69.4012 105.741 71.1165 106.151 71.021 106.625C70.9529 106.964 70.0602 106.84 69.9064 107.266C69.7379 107.732 70.7184 108.133 71.1396 109.305C71.9288 109.833 72.4275 111.148 72.6 112.907C72.8536 115.493 72.5938 117.594 72.1037 119.177C69.7445 126.797 68.0568 132.247 63.9727 135.29C58.5654 139.319 53.6965 135.599 39.9418 135.011C21.1075 134.205 16.4116 140.589 9.64234 136.222C1.18987 130.769 -2.03798 114.009 4.87355 106.509Z" fill="url(#paint14_linear_334_736)"/>
<path d="M103.663 91.7645C103.831 93.3403 104.399 100.312 99.5903 106.198C95.0972 111.698 88.7339 112.796 87.5512 112.975C81.83 113.84 79.3626 111.374 77.3634 113.054C73.9707 115.905 75.7733 127.46 81.9154 130.573C88.8389 134.081 98.8889 125.652 103.296 119.813C109.078 112.153 109.075 103.746 109.041 102.01C108.954 97.4984 107.798 93.907 106.882 91.6736C106.506 91.5603 105.934 91.435 105.232 91.4594C104.563 91.4826 104.023 91.6333 103.663 91.7645Z" fill="url(#paint15_linear_334_736)"/>
<path opacity="0.3" d="M44.8367 181.337C46.5116 179.619 44.6679 176.157 47.142 173.582C49.4382 171.193 52.0379 173.123 55.7345 171.068C60.4756 168.431 59.1691 163.603 63.6982 161.008C66.9549 159.142 68.4854 161.148 73.5481 160.17C78.6023 159.193 84.758 155.709 87.799 149.482C89.091 146.836 89.5672 144.205 89.6304 141.854C91.9036 145.915 94.2614 149.807 94.5719 156.375C94.7667 160.499 94.069 163.869 93.5271 165.898C91.8402 167.999 89.0793 170.964 85.0046 173.443C79.0752 177.05 75.6367 176.421 67.1211 178.752C53.1923 182.564 51.9531 187.104 45.0464 185.947C40.5853 185.2 36.4834 182.531 34.29 179.86C40.7271 182.725 43.6212 182.583 44.8367 181.337Z" fill="#334049"/>
<defs>
<linearGradient id="paint0_linear_334_736" x1="92.2382" y1="96.1833" x2="41.3241" y2="174.2" gradientUnits="userSpaceOnUse">
<stop offset="0.0036" stop-color="#12FFBB"/>
<stop offset="1" stop-color="#079F73"/>
</linearGradient>
<linearGradient id="paint1_linear_334_736" x1="80.8635" y1="8.95226" x2="95.4646" y2="130.186" gradientUnits="userSpaceOnUse">
<stop stop-color="#0EE9AA"/>
<stop offset="0.9964" stop-color="#334049"/>
</linearGradient>
<linearGradient id="paint2_linear_334_736" x1="67.3218" y1="153.177" x2="56.4973" y2="252.33" gradientUnits="userSpaceOnUse">
<stop offset="0.0036" stop-color="#20E6AD"/>
<stop offset="1" stop-color="#005A40"/>
</linearGradient>
<linearGradient id="paint3_linear_334_736" x1="56.1252" y1="143.415" x2="120.652" y2="143.415" gradientUnits="userSpaceOnUse">
<stop stop-color="#12FFBB"/>
<stop offset="1" stop-color="#07976E"/>
</linearGradient>
<linearGradient id="paint4_linear_334_736" x1="185.191" y1="99.4909" x2="259.962" y2="292.082" gradientUnits="userSpaceOnUse">
<stop stop-color="#0EE9AA"/>
<stop offset="1" stop-color="#04A98C"/>
</linearGradient>
<linearGradient id="paint5_linear_334_736" x1="104.262" y1="86.0345" x2="108.011" y2="92.0992" gradientUnits="userSpaceOnUse">
<stop stop-color="#FFC444"/>
<stop offset="0.9964" stop-color="#F36F56"/>
</linearGradient>
<linearGradient id="paint6_linear_334_736" x1="50.8607" y1="157.815" x2="49.3468" y2="160.928" gradientUnits="userSpaceOnUse">
<stop stop-color="#FFC444"/>
<stop offset="0.9964" stop-color="#F36F56"/>
</linearGradient>
<linearGradient id="paint7_linear_334_736" x1="54.715" y1="237.093" x2="54.715" y2="227.327" gradientUnits="userSpaceOnUse">
<stop stop-color="#FFC444"/>
<stop offset="0.9964" stop-color="#F36F56"/>
</linearGradient>
<linearGradient id="paint8_linear_334_736" x1="84.4838" y1="239.877" x2="84.4838" y2="228.107" gradientUnits="userSpaceOnUse">
<stop stop-color="#FFC444"/>
<stop offset="0.9964" stop-color="#F36F56"/>
</linearGradient>
<linearGradient id="paint9_linear_334_736" x1="91.0685" y1="193.641" x2="52.5603" y2="193.641" gradientUnits="userSpaceOnUse">
<stop stop-color="#311944"/>
<stop offset="1" stop-color="#893976"/>
</linearGradient>
<linearGradient id="paint10_linear_334_736" x1="59.9958" y1="129.78" x2="80.8418" y2="65.9132" gradientUnits="userSpaceOnUse">
<stop stop-color="#12D9B5"/>
<stop offset="0.9964" stop-color="#F36F56"/>
</linearGradient>
<linearGradient id="paint11_linear_334_736" x1="87.1329" y1="114.195" x2="57.376" y2="175.385" gradientUnits="userSpaceOnUse">
<stop offset="0.0036" stop-color="#16C184"/>
<stop offset="1" stop-color="#00A98B"/>
</linearGradient>
<linearGradient id="paint12_linear_334_736" x1="67.3729" y1="105.84" x2="73.6226" y2="115.95" gradientUnits="userSpaceOnUse">
<stop stop-color="#FFC444"/>
<stop offset="0.9964" stop-color="#F36F56"/>
</linearGradient>
<linearGradient id="paint13_linear_334_736" x1="69.6123" y1="104.471" x2="73.1792" y2="115.406" gradientUnits="userSpaceOnUse">
<stop stop-color="#FFC444"/>
<stop offset="0.9964" stop-color="#F36F56"/>
</linearGradient>
<linearGradient id="paint14_linear_334_736" x1="71.4429" y1="62.6591" x2="19.0661" y2="145.908" gradientUnits="userSpaceOnUse">
<stop offset="0.325814" stop-color="#334049"/>
<stop offset="0.9964" stop-color="#1D1F20"/>
</linearGradient>
<linearGradient id="paint15_linear_334_736" x1="90.5094" y1="116.31" x2="61.2426" y2="176.492" gradientUnits="userSpaceOnUse">
<stop stop-color="#44FFA5"/>
<stop offset="0.9964" stop-color="#56C4F3"/>
</linearGradient>
</defs>
</svg>
