<svg width="61" height="61" viewBox="0 0 61 61" fill="none" xmlns="http://www.w3.org/2000/svg">
<g id="Database">
<path id="Vector" d="M30.5 5.71875C17.6733 5.71875 7.625 11.5805 7.625 19.0625V41.9375C7.625 49.4195 17.6733 55.2812 30.5 55.2812C43.3267 55.2812 53.375 49.4195 53.375 41.9375V19.0625C53.375 11.5805 43.3267 5.71875 30.5 5.71875ZM49.5625 30.5C49.5625 32.7923 47.6848 35.1298 44.4132 36.9145C40.7294 38.9232 35.7875 40.0312 30.5 40.0312C25.2125 40.0312 20.2706 38.9232 16.5868 36.9145C13.3152 35.1298 11.4375 32.7923 11.4375 30.5V26.535C15.5026 30.1092 22.4532 32.4062 30.5 32.4062C38.5468 32.4062 45.4974 30.0997 49.5625 26.535V30.5ZM16.5868 12.648C20.2706 10.6393 25.2125 9.53125 30.5 9.53125C35.7875 9.53125 40.7294 10.6393 44.4132 12.648C47.6848 14.4327 49.5625 16.7702 49.5625 19.0625C49.5625 21.3548 47.6848 23.6923 44.4132 25.477C40.7294 27.4857 35.7875 28.5938 30.5 28.5938C25.2125 28.5938 20.2706 27.4857 16.5868 25.477C13.3152 23.6923 11.4375 21.3548 11.4375 19.0625C11.4375 16.7702 13.3152 14.4327 16.5868 12.648ZM44.4132 48.352C40.7294 50.3607 35.7875 51.4688 30.5 51.4688C25.2125 51.4688 20.2706 50.3607 16.5868 48.352C13.3152 46.5673 11.4375 44.2298 11.4375 41.9375V37.9725C15.5026 41.5467 22.4532 43.8438 30.5 43.8438C38.5468 43.8438 45.4974 41.5372 49.5625 37.9725V41.9375C49.5625 44.2298 47.6848 46.5673 44.4132 48.352Z" fill="#334049"/>
</g>
</svg>
