<svg width="1440" height="803" viewBox="0 0 1440 803" fill="none" xmlns="http://www.w3.org/2000/svg">
<g opacity="0.2">
<path d="M422.47 611.063C402.749 748.718 90.0879 1053.08 -188.524 906.303C-228.516 885.233 -253.081 845.782 -256.911 795.619C-258.768 771.327 -258.739 740.285 -255.108 700.916C-242.037 559.169 -450.754 622.653 -517.776 517.974C-674.155 273.737 -167.161 -348.218 137.258 -245.58C441.678 -142.942 108.002 184.337 197.849 249.376C287.688 314.414 454.967 384.202 422.47 611.063Z" fill="black"/>
</g>
<path d="M416.246 628.569C396.525 766.224 83.8663 1070.59 -194.747 923.809C-234.74 902.739 -259.305 863.288 -263.134 813.126C-264.992 788.833 -264.963 757.792 -261.331 718.423C-248.261 576.676 -456.978 640.159 -523.999 535.48C-680.379 291.243 -173.384 -330.712 131.035 -228.074C435.454 -125.436 101.779 201.844 191.625 266.883C281.468 331.912 448.746 401.7 416.246 628.569Z" fill="url(#paint0_linear_296_5617)"/>
<g opacity="0.2">
<path d="M358.986 651.956C323.598 778.294 17.3224 1019.89 -198.877 843.138C-229.911 817.765 -245.38 777.321 -241.818 729.735C-240.094 706.691 -235.86 677.584 -227.44 641.166C-197.135 510.061 -382.632 540.317 -425.224 432.736C-524.614 181.728 -10.555 -330.466 233.508 -191.491C477.569 -52.5209 150.38 207.617 217.7 281.223C285.01 354.823 417.305 443.744 358.986 651.956Z" fill="black"/>
</g>
<path d="M354.108 665.669C318.719 792.007 12.4489 1033.6 -203.756 856.851C-234.79 831.478 -250.258 791.034 -246.697 743.447C-244.973 720.404 -240.738 691.297 -232.319 654.879C-202.008 523.771 -387.505 554.026 -430.102 446.448C-529.493 195.441 -15.4337 -316.753 228.629 -177.779C472.69 -38.8083 145.501 221.33 212.821 294.936C280.136 368.532 412.432 457.453 354.108 665.669Z" fill="url(#paint1_linear_296_5617)"/>
<g opacity="0.2">
<path d="M247.005 710.574C208.047 837.018 -102.436 1071.09 -310.731 885.58C-340.633 858.949 -354.659 817.604 -349.645 769.66C-347.218 746.439 -342.118 717.187 -332.652 680.677C-298.566 549.252 -482.982 573.796 -521.74 463.77C-612.178 207.054 -87.7048 -293.564 149.326 -145.31C386.357 2.94443 54.606 255.062 118.877 331.575C183.151 408.093 311.211 502.183 247.005 710.574Z" fill="black"/>
</g>
<path d="M241.388 726.369C202.431 852.814 -108.053 1086.88 -316.35 901.371C-346.252 874.741 -360.278 833.395 -355.269 785.455C-352.84 762.239 -347.742 732.982 -338.276 696.472C-304.191 565.047 -488.606 589.591 -527.362 479.569C-617.8 222.853 -93.3324 -277.761 143.699 -129.507C380.732 18.752 48.9784 270.865 113.255 347.375C177.536 423.893 305.596 517.983 241.388 726.369Z" fill="url(#paint2_linear_296_5617)"/>
<g opacity="0.2">
<path d="M422.865 673.06C424.134 673.521 449.353 681.945 484.098 650.064C517.181 619.712 544.769 581.748 544.254 527.894C543.712 471.006 504.949 440.715 462.578 453.269C420.206 465.823 389.816 509.051 393.246 537.464C396.778 566.732 426.698 585.046 434.358 599.036C441.975 612.951 393.348 662.24 422.865 673.06Z" fill="black"/>
</g>
<path d="M422.342 681.847C423.606 682.313 448.83 690.732 483.576 658.852C516.658 628.5 544.246 590.536 543.725 536.685C543.184 479.798 504.421 449.506 462.049 462.06C419.678 474.615 389.288 517.842 392.717 546.256C396.25 575.523 426.17 593.838 433.83 607.828C441.454 621.743 392.82 671.031 422.342 681.847Z" fill="url(#paint3_linear_296_5617)"/>
<g opacity="0.2">
<path d="M418.598 707.512C411.869 693.449 392.653 691.866 375.676 703.976C358.7 716.085 350.393 737.302 357.121 751.364C363.85 765.427 383.066 767.01 400.043 754.9C417.019 742.791 425.326 721.574 418.598 707.512Z" fill="black"/>
</g>
<path d="M415.789 715.416C409.06 701.353 389.843 699.77 372.867 711.88C355.891 723.989 347.583 745.206 354.312 759.268C361.04 773.331 380.257 774.914 397.233 762.805C414.21 750.695 422.517 729.478 415.789 715.416Z" fill="url(#paint4_linear_296_5617)"/>
<g opacity="0.2">
<path d="M1304.75 438.88C1308.64 440.317 1385.82 466.578 1491.64 369.505C1592.4 277.084 1676.27 161.242 1674.06 -3.79666C1671.72 -178.13 1552.87 -271.645 1423.51 -233.929C1294.14 -196.214 1201.77 -64.2915 1212.59 22.8393C1223.74 112.587 1315.41 169.243 1338.99 212.249C1362.44 255.025 1214.4 405.198 1304.75 438.88Z" fill="black"/>
</g>
<path d="M1303.15 465.765C1307.02 467.214 1384.22 493.464 1490.05 396.391C1590.8 303.97 1674.67 188.128 1672.44 23.1005C1670.1 -151.233 1551.26 -244.749 1421.89 -207.033C1292.53 -169.317 1200.15 -37.3945 1210.97 49.7363C1222.12 139.484 1313.8 196.14 1337.38 239.147C1360.85 281.925 1212.78 432.095 1303.15 465.765Z" fill="url(#paint5_linear_296_5617)"/>
<path d="M1238 311.775C1244.8 287.19 1262.99 272.287 1278.64 278.493C1294.29 284.699 1301.46 309.663 1294.66 334.249C1287.86 358.837 1265.64 388.292 1249.99 382.086C1234.34 375.883 1231.2 336.364 1238 311.775Z" fill="url(#paint6_linear_296_5617)"/>
<g style="mix-blend-mode:multiply">
<path d="M1078.42 657.107C1116.42 468.413 1239.95 362.614 1354.35 420.832C1468.75 479.05 1530.68 679.224 1492.68 867.918C1454.69 1056.64 1308.65 1274.12 1194.25 1215.9C1079.86 1157.71 1040.43 845.824 1078.42 657.107Z" fill="#CCCCCC"/>
</g>
<path d="M1064.42 669.021C1102.42 480.327 1225.95 374.528 1340.35 432.746C1454.75 490.963 1516.68 691.138 1478.68 879.832C1440.69 1068.55 1294.65 1286.04 1180.25 1227.82C1065.86 1169.62 1026.43 857.738 1064.42 669.021Z" fill="url(#paint7_linear_296_5617)"/>
<defs>
<linearGradient id="paint0_linear_296_5617" x1="335.803" y1="776.721" x2="-370.52" y2="13.3806" gradientUnits="userSpaceOnUse">
<stop offset="0.0015" stop-color="#83F4B7"/>
<stop offset="0.0621" stop-color="#88F6C8"/>
<stop offset="0.317" stop-color="#96FDD8"/>
<stop offset="0.5315" stop-color="#9BFFE7"/>
</linearGradient>
<linearGradient id="paint1_linear_296_5617" x1="243.393" y1="810.964" x2="-311.412" y2="33.751" gradientUnits="userSpaceOnUse">
<stop offset="0.5879" stop-color="#85FDCB"/>
<stop offset="0.8691" stop-color="#85FDD2"/>
</linearGradient>
<linearGradient id="paint2_linear_296_5617" x1="150.09" y1="852.436" x2="-59.6837" y2="84.0911" gradientUnits="userSpaceOnUse">
<stop stop-color="#0DD199"/>
<stop offset="1" stop-color="#12FFBB"/>
</linearGradient>
<linearGradient id="paint3_linear_296_5617" x1="524.799" y1="611.997" x2="398.402" y2="513.481" gradientUnits="userSpaceOnUse">
<stop stop-color="#0EE9AA"/>
<stop offset="0.4131" stop-color="#1FFDBA"/>
<stop offset="0.7702" stop-color="#00FFB6"/>
<stop offset="0.9968" stop-color="#00FFB3"/>
</linearGradient>
<linearGradient id="paint4_linear_296_5617" x1="415.79" y1="715.413" x2="348.692" y2="747.517" gradientUnits="userSpaceOnUse">
<stop stop-color="#41FAC3"/>
<stop offset="0.4131" stop-color="#1FFDE2"/>
<stop offset="0.7702" stop-color="#08FED2"/>
<stop offset="0.9968" stop-color="#00FFD1"/>
</linearGradient>
<linearGradient id="paint5_linear_296_5617" x1="1615.49" y1="253.545" x2="1226.5" y2="-48.7234" gradientUnits="userSpaceOnUse">
<stop stop-color="#0EE9AA"/>
<stop offset="0.4131" stop-color="#1FFDBA"/>
<stop offset="0.7702" stop-color="#00FFB6"/>
<stop offset="0.9968" stop-color="#00FFB3"/>
</linearGradient>
<linearGradient id="paint6_linear_296_5617" x1="1292.7" y1="341.579" x2="1234.29" y2="325.422" gradientUnits="userSpaceOnUse">
<stop offset="0.0107" stop-color="#00E5AE"/>
<stop offset="0.247" stop-color="#12D9B5"/>
<stop offset="0.7401" stop-color="#52EBAB"/>
<stop offset="1" stop-color="#73EDD0"/>
</linearGradient>
<linearGradient id="paint7_linear_296_5617" x1="1467.84" y1="936.133" x2="1028.94" y2="847.744" gradientUnits="userSpaceOnUse">
<stop offset="0.0107" stop-color="#00E5AE"/>
<stop offset="0.247" stop-color="#12D9B5"/>
<stop offset="0.7401" stop-color="#52EAC6"/>
<stop offset="1" stop-color="#73EDD0"/>
</linearGradient>
</defs>
</svg>
