<svg width="200" height="63" viewBox="0 0 200 63" fill="none" xmlns="http://www.w3.org/2000/svg">
<g clip-path="url(#clip0_269_35)">
<path d="M40.0532 26.4174V48.6097H33.5131C33.2423 47.6425 33.0155 45.9655 32.8328 43.5787C30.1084 47.2551 25.9305 49.0933 20.299 49.0933C14.213 49.0933 9.30857 46.9795 5.58578 42.7517C1.86299 38.524 0.00106214 32.8955 0 25.8661C0 18.8313 1.97558 13.2028 5.92673 8.98044C9.87788 4.75809 14.9655 2.64423 21.1896 2.63885C24.4132 2.63885 27.2513 3.15577 29.7037 4.18959C32.1562 5.22342 34.0638 6.56675 35.4265 8.21958C36.7274 9.76939 37.7634 11.5281 38.4919 13.4231C39.1602 15.1716 39.5063 17.0292 39.5131 18.9039L30.6581 20.2821C30.6869 17.9249 29.8494 15.6408 28.3081 13.8728C26.7372 12.0395 24.4079 11.1228 21.3203 11.1228C18.0054 11.1228 15.2581 12.4554 13.0786 15.1205C10.8991 17.7857 9.80937 21.3697 9.80937 25.8725C9.80937 30.4216 10.8991 34.0754 13.0786 36.8341C15.2581 39.5928 18.2098 40.971 21.9337 40.9689C25.068 40.9689 27.4865 40.2225 29.1891 38.7298C30.8917 37.2371 31.7882 35.2038 31.8785 32.63H20.0887V26.4174H40.0532Z" fill="#12FFBB"/>
<path d="M58.9215 15.6653C63.9624 15.6653 68.0379 17.2161 71.1478 20.3176C74.2578 23.419 75.8133 27.4281 75.8143 32.3447C75.8143 37.2612 74.2588 41.2703 71.1478 44.3718C68.0368 47.4732 63.9614 49.024 58.9215 49.024C53.8339 49.024 49.7351 47.4732 46.6252 44.3718C43.5152 41.2703 41.9603 37.2612 41.9603 32.3447C41.9603 27.4281 43.5152 23.419 46.6252 20.3176C49.7351 17.2161 53.8339 15.6653 58.9215 15.6653ZM53.4712 38.8233C54.8339 40.4772 56.6507 41.3041 58.9215 41.3041C61.1924 41.3041 62.998 40.4772 64.3384 38.8233C65.6767 37.1694 66.3464 35.0098 66.3475 32.3447C66.3485 29.6795 65.6789 27.52 64.3384 25.8661C62.9991 24.2121 61.1935 23.3852 58.9215 23.3852C56.6496 23.3852 54.8328 24.2121 53.4712 25.8661C52.1085 27.52 51.4276 29.6795 51.4287 32.3447C51.4298 35.0098 52.1106 37.1694 53.4712 38.8233Z" fill="#12FFBB"/>
<path d="M89.5542 43.7222L89.4187 43.7899C93.3189 43.7899 96.3131 44.5701 98.4012 46.1305C100.533 47.7425 101.599 50.0149 101.599 52.9476C101.599 55.932 100.238 58.3645 97.517 60.2451C94.8383 62.0806 90.5961 62.9989 84.7905 63C79.1197 63 74.9009 62.2198 72.134 60.6594C69.3204 59.0474 67.9136 56.8443 67.9136 54.0502C67.9136 50.8359 69.7283 48.5635 73.3576 47.2331C71.2705 46.0864 70.2275 44.2504 70.2286 41.7249C70.2296 39.1994 71.6359 37.3865 74.4474 36.286C71.9067 34.126 70.6364 31.2566 70.6364 27.678C70.6364 24.1445 71.8839 21.2757 74.3789 19.0715C76.8738 16.8674 80.2084 15.7659 84.3826 15.7669C88.1479 15.7669 91.3008 16.7078 93.8415 18.5895C96.0645 17.5804 97.1761 14.9873 97.1761 10.8101L102.274 11.9111C102.274 14.6665 101.593 16.8013 100.232 18.3155C98.8702 19.8297 97.4894 20.6787 96.0895 20.8625C97.4947 22.7453 98.1978 24.9945 98.1989 27.6103C98.1989 31.0986 96.9509 33.9465 94.4549 36.1538C91.9132 38.3569 88.5791 39.4584 84.4527 39.4584C82.5119 39.4753 80.5813 39.1732 78.7363 38.5638C76.7851 38.8862 75.8096 39.6664 75.8096 40.9044C75.8096 41.9619 76.3996 42.6964 77.5796 43.108C78.7597 43.5196 80.5286 43.7265 82.8866 43.7286L89.5542 43.7222ZM84.859 57.9738L84.7905 58.0431C88.6014 58.0431 91.3917 57.653 93.1612 56.8728C94.8383 56.1378 95.6774 54.8525 95.6784 53.0169C95.6784 51.4565 95.089 50.4007 93.91 49.8494C92.731 49.2981 90.8489 49.0224 88.2637 49.0224H81.1165C76.3072 49.0224 73.9025 50.4458 73.9025 53.2926C73.9025 54.8981 74.7644 56.0915 76.4883 56.8728C78.1218 57.6068 80.9121 57.9738 84.859 57.9738ZM84.4511 20.8625C82.1357 20.8625 80.2769 21.482 78.8749 22.7211C77.4729 23.9602 76.7681 25.6125 76.7607 27.678C76.7607 29.7446 77.4415 31.3974 78.8032 32.6365C80.1649 33.8756 82.0018 34.4956 84.3141 34.4967C86.7177 34.4967 88.6232 33.8772 90.0305 32.6381C91.4379 31.399 92.141 29.7462 92.1399 27.6796C92.1399 25.6141 91.4368 23.9618 90.0305 22.7227C88.5786 21.4825 86.7188 20.8625 84.4511 20.8625Z" fill="#334049"/>
<path d="M116.707 15.6992C121.65 15.6992 125.665 17.2575 128.752 20.374C131.791 23.4486 133.311 27.4899 133.312 32.4978C133.312 37.4112 131.792 41.3821 128.752 44.4105C125.712 47.4389 121.697 48.9536 116.707 48.9547C111.715 48.9547 107.7 47.4399 104.661 44.4105C101.622 41.381 100.103 37.4101 100.103 32.4978C100.103 27.4963 101.622 23.4572 104.661 20.3805C107.75 17.2596 111.765 15.6992 116.707 15.6992ZM116.707 43.9285H116.57C119.701 43.9285 122.219 42.8726 124.124 40.7609C126.028 38.6492 126.98 35.8948 126.979 32.4978C126.979 29.1019 126.026 26.3018 124.12 24.0977C122.215 21.8936 119.719 20.792 116.632 20.7931C113.547 20.7931 111.051 21.8947 109.144 24.0977C107.238 26.3008 106.288 29.1008 106.296 32.4978C106.296 35.8959 107.248 38.6503 109.154 40.7609C111.059 42.8715 113.577 43.9274 116.707 43.9285Z" fill="#334049"/>
<path d="M150.255 15.6992C155.199 15.6992 159.213 17.2575 162.3 20.374C165.338 23.4497 166.858 27.4888 166.86 32.4914C166.86 37.4047 165.34 41.3756 162.3 44.404C159.26 47.4324 155.245 48.9472 150.255 48.9482C145.263 48.9482 141.248 47.4335 138.211 44.404C135.173 41.3745 133.653 37.4037 133.651 32.4914C133.651 27.4899 135.171 23.4508 138.211 20.374C141.295 17.2575 145.31 15.6992 150.255 15.6992ZM150.255 43.9285H150.118C153.248 43.9285 155.766 42.8726 157.672 40.7609C159.577 38.6492 160.53 35.8948 160.53 32.4978C160.53 29.1019 159.577 26.3019 157.672 24.0977C155.766 21.8936 153.27 20.7921 150.184 20.7931C147.098 20.7931 144.602 21.8947 142.696 24.0977C140.789 26.3008 139.838 29.1008 139.844 32.4978C139.844 35.8959 140.796 38.6503 142.702 40.7609C144.607 42.8716 147.125 43.9274 150.255 43.9285Z" fill="#334049"/>
<path d="M193.943 0L199.997 0.0693158V48.6823L195.572 48.8886C195.074 45.584 194.87 43.0585 194.961 41.3122H194.757C193.803 43.5961 192.22 45.5545 190.197 46.9542C188.201 48.3771 185.705 49.0885 182.709 49.0885C178.171 49.0885 174.474 47.5506 171.615 44.4749C168.757 41.3584 167.328 37.2962 167.328 32.2883C167.328 27.2803 168.757 23.2643 171.615 20.2402C174.474 17.2097 178.262 15.6949 182.98 15.696C187.834 15.696 191.486 17.5321 193.936 21.2042L193.943 0ZM183.803 43.9962L183.6 43.9285C186.774 43.9285 189.292 42.7807 191.153 40.4853C192.968 38.236 193.875 35.7573 193.874 33.0491V31.7418C193.874 28.8499 192.967 26.3244 191.153 24.1654C189.339 21.9624 186.73 20.8608 183.327 20.8608C180.334 20.8608 177.952 21.9167 176.182 24.0284C174.413 26.1874 173.528 28.9643 173.527 32.3592C173.527 35.8475 174.458 38.6707 176.319 40.8286C178.132 42.9414 180.627 43.9973 183.803 43.9962Z" fill="#334049"/>
</g>
<defs>
<clipPath id="clip0_269_35">
<rect width="200" height="63" fill="white"/>
</clipPath>
</defs>
</svg>
