<svg width="1256" height="391" viewBox="0 0 1256 391" fill="none" xmlns="http://www.w3.org/2000/svg">
<g clip-path="url(#clip0_26_2)">
<path d="M251.4 163.88V301.55H210.35C208.65 295.55 207.227 285.147 206.08 270.34C188.98 293.147 162.757 304.55 127.41 304.55C89.21 304.55 58.4267 291.437 35.06 265.21C11.6933 238.983 0.00666667 204.067 0 160.46C0 116.82 12.4 81.9033 37.2 55.71C62 29.5167 93.9333 16.4033 133 16.37C153.233 16.37 171.047 19.5767 186.44 25.99C201.833 32.4033 213.807 40.7367 222.36 50.99C230.525 60.6042 237.028 71.5142 241.6 83.27C245.795 94.1168 247.967 105.64 248.01 117.27L192.43 125.82C192.611 111.197 187.354 97.0272 177.68 86.06C167.82 74.6867 153.2 69 133.82 69C113.013 69 95.77 77.2667 82.09 93.8C68.41 110.333 61.57 132.567 61.57 160.5C61.57 188.72 68.41 211.387 82.09 228.5C95.77 245.613 114.297 254.163 137.67 254.15C157.343 254.15 172.523 249.52 183.21 240.26C193.897 231 199.523 218.387 200.09 202.42H126.09V163.88H251.4Z" fill="#12FFBB"/>
<path d="M369.83 97.18C401.47 97.18 427.05 106.8 446.57 126.04C466.09 145.28 475.853 170.15 475.86 200.65C475.86 231.15 466.097 256.02 446.57 275.26C427.043 294.5 401.463 304.12 369.83 304.12C337.897 304.12 312.17 294.5 292.65 275.26C273.13 256.02 263.37 231.15 263.37 200.65C263.37 170.15 273.13 145.28 292.65 126.04C312.17 106.8 337.897 97.18 369.83 97.18ZM335.62 240.84C344.173 251.1 355.577 256.23 369.83 256.23C384.083 256.23 395.417 251.1 403.83 240.84C412.23 230.58 416.433 217.183 416.44 200.65C416.447 184.117 412.243 170.72 403.83 160.46C395.423 150.2 384.09 145.07 369.83 145.07C355.57 145.07 344.167 150.2 335.62 160.46C327.067 170.72 322.793 184.117 322.8 200.65C322.807 217.183 327.08 230.58 335.62 240.84Z" fill="#12FFBB"/>
<g filter="url(#filter0_d_26_2)">
<path d="M562.1 271.23L561.25 271.65C585.73 271.65 604.523 276.49 617.63 286.17C631.01 296.17 637.7 310.267 637.7 328.46C637.7 346.973 629.16 362.063 612.08 373.73C595.267 385.117 568.64 390.813 532.2 390.82C496.607 390.82 470.127 385.98 452.76 376.3C435.1 366.3 426.27 352.633 426.27 335.3C426.27 315.36 437.66 301.263 460.44 293.01C447.34 285.897 440.793 274.507 440.8 258.84C440.807 243.173 449.633 231.927 467.28 225.1C451.333 211.7 443.36 193.9 443.36 171.7C443.36 149.78 451.19 131.983 466.85 118.31C482.51 104.637 503.44 97.8033 529.64 97.81C553.273 97.81 573.063 103.647 589.01 115.32C602.963 109.06 609.94 92.9733 609.94 67.06L641.94 73.89C641.94 90.9833 637.667 104.227 629.12 113.62C620.573 123.013 611.907 128.28 603.12 129.42C611.94 141.1 616.353 155.053 616.36 171.28C616.36 192.92 608.527 210.587 592.86 224.28C576.907 237.947 555.98 244.78 530.08 244.78C517.898 244.885 505.781 243.01 494.2 239.23C481.953 241.23 475.83 246.07 475.83 253.75C475.83 260.31 479.533 264.867 486.94 267.42C494.347 269.973 505.45 271.257 520.25 271.27L562.1 271.23ZM532.63 359.64L532.2 360.07C556.12 360.07 573.633 357.65 584.74 352.81C595.267 348.25 600.533 340.277 600.54 328.89C600.54 319.21 596.84 312.66 589.44 309.24C582.04 305.82 570.227 304.11 554 304.11H509.14C478.953 304.11 463.86 312.94 463.86 330.6C463.86 340.56 469.27 347.963 480.09 352.81C490.343 357.363 507.857 359.64 532.63 359.64ZM530.07 129.42C515.537 129.42 503.87 133.263 495.07 140.95C486.27 148.637 481.847 158.887 481.8 171.7C481.8 184.52 486.073 194.773 494.62 202.46C503.167 210.147 514.697 213.993 529.21 214C544.297 214 556.257 210.157 565.09 202.47C573.923 194.783 578.337 184.53 578.33 171.71C578.33 158.897 573.917 148.647 565.09 140.96C555.977 133.267 544.303 129.42 530.07 129.42Z" fill="#334049"/>
</g>
<path d="M732.53 97.39C763.557 97.39 788.757 107.057 808.13 126.39C827.203 145.463 836.743 170.533 836.75 201.6C836.75 232.08 827.21 256.713 808.13 275.5C789.05 294.287 763.85 303.683 732.53 303.69C701.197 303.69 675.993 294.293 656.92 275.5C637.847 256.707 628.31 232.073 628.31 201.6C628.31 170.573 637.847 145.517 656.92 126.43C676.307 107.07 701.51 97.39 732.53 97.39ZM732.53 272.51H731.67C751.323 272.51 767.127 265.96 779.08 252.86C791.033 239.76 797.007 222.673 797 201.6C797 180.533 791.02 163.163 779.06 149.49C767.1 135.817 751.433 128.983 732.06 128.99C712.693 128.99 697.027 135.823 685.06 149.49C673.093 163.157 667.133 180.527 667.18 201.6C667.18 222.68 673.16 239.767 685.12 252.86C697.08 265.953 712.883 272.503 732.53 272.51Z" fill="#334049"/>
<path d="M943.1 97.39C974.127 97.39 999.327 107.057 1018.7 126.39C1037.77 145.47 1047.31 170.527 1047.32 201.56C1047.32 232.04 1037.78 256.673 1018.7 275.46C999.62 294.247 974.42 303.643 943.1 303.65C911.767 303.65 886.567 294.253 867.5 275.46C848.433 256.667 838.893 232.033 838.88 201.56C838.88 170.533 848.42 145.477 867.5 126.39C886.86 107.057 912.06 97.39 943.1 97.39ZM943.1 272.51H942.24C961.887 272.51 977.69 265.96 989.65 252.86C1001.61 239.76 1007.59 222.673 1007.59 201.6C1007.59 180.533 1001.61 163.163 989.65 149.49C977.69 135.817 962.023 128.983 942.65 128.99C923.283 128.99 907.617 135.823 895.65 149.49C883.683 163.157 877.717 180.527 877.75 201.6C877.75 222.68 883.73 239.767 895.69 252.86C907.65 265.953 923.453 272.503 943.1 272.51Z" fill="#334049"/>
<path d="M1217.31 0L1255.31 0.43V302L1227.54 303.28C1224.41 282.78 1223.13 267.113 1223.7 256.28H1222.42C1216.43 270.448 1206.5 282.597 1193.8 291.28C1181.27 300.107 1165.61 304.52 1146.8 304.52C1118.32 304.52 1095.11 294.98 1077.17 275.9C1059.23 256.567 1050.26 231.367 1050.26 200.3C1050.26 169.233 1059.23 144.32 1077.17 125.56C1095.11 106.76 1118.89 97.3633 1148.5 97.37C1178.97 97.37 1201.89 108.76 1217.27 131.54L1217.31 0ZM1153.67 272.93L1152.39 272.51C1172.32 272.51 1188.12 265.39 1199.8 251.15C1211.19 237.197 1216.89 221.82 1216.88 205.02V196.91C1216.88 178.97 1211.19 163.303 1199.8 149.91C1188.41 136.243 1172.04 129.41 1150.68 129.41C1131.89 129.41 1116.94 135.96 1105.83 149.06C1094.73 162.453 1089.18 179.68 1089.17 200.74C1089.17 222.38 1095.01 239.893 1106.69 253.28C1118.07 266.387 1133.73 272.937 1153.67 272.93Z" fill="#334049"/>
</g>
<defs>
<filter id="filter0_d_26_2" x="422.27" y="67.06" width="223.67" height="331.76" filterUnits="userSpaceOnUse" color-interpolation-filters="sRGB">
<feFlood flood-opacity="0" result="BackgroundImageFix"/>
<feColorMatrix in="SourceAlpha" type="matrix" values="0 0 0 0 0 0 0 0 0 0 0 0 0 0 0 0 0 0 127 0" result="hardAlpha"/>
<feOffset dy="4"/>
<feGaussianBlur stdDeviation="2"/>
<feComposite in2="hardAlpha" operator="out"/>
<feColorMatrix type="matrix" values="0 0 0 0 0 0 0 0 0 0 0 0 0 0 0 0 0 0 0.25 0"/>
<feBlend mode="normal" in2="BackgroundImageFix" result="effect1_dropShadow_26_2"/>
<feBlend mode="normal" in="SourceGraphic" in2="effect1_dropShadow_26_2" result="shape"/>
</filter>
<clipPath id="clip0_26_2">
<rect width="1255.33" height="390.82" fill="white"/>
</clipPath>
</defs>
</svg>
