<svg width="61" height="61" viewBox="0 0 61 61" fill="none" xmlns="http://www.w3.org/2000/svg">
<g id="Users">
<path id="Vector" d="M27.9385 37.6293C30.4933 35.9284 32.433 33.4505 33.4707 30.562C34.5083 27.6735 34.5889 24.5277 33.7004 21.5899C32.8119 18.6521 31.0016 16.0781 28.5371 14.2488C26.0726 12.4194 23.0849 11.4316 20.0156 11.4316C16.9464 11.4316 13.9586 12.4194 11.4941 14.2488C9.02967 16.0781 7.21935 18.6521 6.33087 21.5899C5.44239 24.5277 5.52294 27.6735 6.56059 30.562C7.59824 33.4505 9.53791 35.9284 12.0928 37.6293C7.47129 39.3326 3.52443 42.4846 0.841129 46.6149C0.700104 46.8245 0.602148 47.0601 0.552955 47.3078C0.503761 47.5556 0.504312 47.8107 0.554575 48.0583C0.604838 48.3059 0.70381 48.541 0.845739 48.75C0.987668 48.959 1.16972 49.1377 1.38132 49.2757C1.59292 49.4137 1.82983 49.5083 2.0783 49.5539C2.32677 49.5996 2.58184 49.5954 2.82867 49.5416C3.0755 49.4878 3.30918 49.3854 3.51612 49.2405C3.72306 49.0956 3.89913 48.911 4.0341 48.6975C5.76495 46.0354 8.13339 43.8478 10.9243 42.3334C13.7153 40.819 16.8403 40.0258 20.0156 40.0258C23.1909 40.0258 26.316 40.819 29.1069 42.3334C31.8979 43.8478 34.2663 46.0354 35.9971 48.6975C36.2767 49.113 36.7086 49.4018 37.1995 49.5015C37.6903 49.6011 38.2006 49.5036 38.6201 49.23C39.0396 48.9564 39.3346 48.5287 39.4413 48.0393C39.5479 47.55 39.4577 47.0383 39.1901 46.6149C36.5068 42.4846 32.56 39.3326 27.9385 37.6293ZM9.53125 25.7343C9.53125 23.6607 10.1461 21.6337 11.2982 19.9095C12.4502 18.1854 14.0877 16.8416 16.0034 16.048C17.9192 15.2545 20.0273 15.0469 22.061 15.4514C24.0948 15.8559 25.9629 16.8545 27.4292 18.3207C28.8955 19.787 29.894 21.6551 30.2985 23.6889C30.7031 25.7227 30.4955 27.8307 29.7019 29.7465C28.9084 31.6623 27.5646 33.2997 25.8404 34.4518C24.1163 35.6038 22.0892 36.2187 20.0156 36.2187C17.236 36.2155 14.571 35.1099 12.6055 33.1444C10.64 31.1789 9.5344 28.514 9.53125 25.7343ZM59.6037 49.2527C59.1802 49.5288 58.6645 49.6254 58.1698 49.5213C57.6752 49.4172 57.2421 49.1209 56.9659 48.6975C55.2371 46.0338 52.869 43.8453 50.0775 42.3315C47.286 40.8178 44.1599 40.0269 40.9844 40.0312C40.4788 40.0312 39.9939 39.8304 39.6364 39.4729C39.279 39.1154 39.0781 38.6305 39.0781 38.1249C39.0781 37.6194 39.279 37.1345 39.6364 36.777C39.9939 36.4195 40.4788 36.2187 40.9844 36.2187C42.5284 36.2172 44.053 35.8748 45.4493 35.2158C46.8456 34.5568 48.0791 33.5976 49.0617 32.4066C50.0443 31.2156 50.7517 29.8223 51.1334 28.3263C51.5151 26.8302 51.5617 25.2683 51.2698 23.7522C50.9779 22.236 50.3547 20.8031 49.4448 19.5557C48.5349 18.3083 47.3607 17.2773 46.0062 16.5363C44.6516 15.7953 43.1501 15.3626 41.6089 15.2692C40.0678 15.1757 38.525 15.4238 37.0909 15.9958C36.857 16.0968 36.6053 16.15 36.3506 16.1522C36.0958 16.1543 35.8432 16.1054 35.6077 16.0083C35.3722 15.9112 35.1586 15.7678 34.9794 15.5868C34.8002 15.4057 34.6592 15.1905 34.5645 14.954C34.4699 14.7174 34.4237 14.4644 34.4285 14.2097C34.4334 13.9549 34.4893 13.7038 34.5928 13.4711C34.6964 13.2383 34.8456 13.0287 35.0315 12.8546C35.2175 12.6804 35.4364 12.5454 35.6755 12.4573C38.9577 11.1483 42.6084 11.1012 45.9233 12.3251C49.2382 13.5489 51.9825 15.9571 53.6266 19.0849C55.2708 22.2127 55.6983 25.8386 54.8268 29.2631C53.9553 32.6875 51.8465 35.6679 48.9072 37.6293C53.5287 39.3326 57.4756 42.4846 60.1589 46.6149C60.435 47.0383 60.5316 47.5541 60.4275 48.0488C60.3234 48.5434 60.027 48.9765 59.6037 49.2527Z" fill="#334049"/>
</g>
</svg>
